<?xml version="1.0" encoding="UTF-8" standalone="no"?>
<svg
   version="1.1"
   width="177"
   height="157.18076"
   viewBox="0 0 134.61538 119.54208"
   id="svg17"
   sodipodi:docname="White logo - only icon - no background.svg"
   inkscape:version="1.3.2 (091e20ef0f, 2023-11-25)"
   xmlns:inkscape="http://www.inkscape.org/namespaces/inkscape"
   xmlns:sodipodi="http://sodipodi.sourceforge.net/DTD/sodipodi-0.dtd"
   xmlns="http://www.w3.org/2000/svg"
   xmlns:svg="http://www.w3.org/2000/svg">
  <sodipodi:namedview
     id="namedview17"
     pagecolor="#505050"
     bordercolor="#eeeeee"
     borderopacity="1"
     inkscape:showpageshadow="0"
     inkscape:pageopacity="0"
     inkscape:pagecheckerboard="0"
     inkscape:deskcolor="#d1d1d1"
     inkscape:zoom="1.3526727"
     inkscape:cx="63.208195"
     inkscape:cy="151.18217"
     inkscape:window-width="1920"
     inkscape:window-height="1011"
     inkscape:window-x="0"
     inkscape:window-y="0"
     inkscape:window-maximized="1"
     inkscape:current-layer="svg17" />
  <defs
     id="SvgjsDefs6587">
    <linearGradient
       id="SvgjsLinearGradient6592">
      <stop
         id="SvgjsStop6593"
         stop-color="#fbb040"
         offset="0" />
      <stop
         id="SvgjsStop6594"
         stop-color="#f9ed32"
         offset="1" />
    </linearGradient>
    <linearGradient
       id="SvgjsLinearGradient6595">
      <stop
         id="SvgjsStop6596"
         stop-color="#fbb040"
         offset="0" />
      <stop
         id="SvgjsStop6597"
         stop-color="#f9ed32"
         offset="1" />
    </linearGradient>
  </defs>
  <g
     id="SvgjsG6588"
     featurekey="9id2mP-0"
     transform="matrix(1.4976842,0,0,1.4976842,-8.2197931,-12.775866)"
     fill="url(#SvgjsLinearGradient6592)"
     style="fill:#fcfcfc;fill-opacity:1">
    <path
       d="m 64.761261,14.090996 c 0.195419,-0.02501 0.409721,-0.02977 0.6371,-0.01478 0.226692,0.01494 0.466683,0.04954 0.71431,0.1034 0.247246,0.05377 0.502472,0.126821 0.760139,0.218848 0.257683,0.09203 0.518227,0.203195 0.776169,0.333309 0.389214,0.196336 0.736649,0.417834 1.032372,0.650993 0.29747,0.234536 0.543426,0.481516 0.726913,0.726969 0.184998,0.247473 0.306832,0.493847 0.353661,0.724452 0.04729,0.232824 0.01815,0.449779 -0.09984,0.635385 -0.03999,0.06264 -0.08885,0.1197 -0.145843,0.171181 -0.05717,0.05164 -0.122498,0.09765 -0.195236,0.138033 -0.07294,0.0405 -0.153313,0.07531 -0.240334,0.10445 -0.08725,0.02921 -0.18116,0.05271 -0.280937,0.07049 -0.198074,0.0353 -0.419075,0.04805 -0.656723,0.03834 -0.238403,-0.0097 -0.493218,-0.04206 -0.75795,-0.09679 -0.265175,-0.05482 -0.539871,-0.132021 -0.817467,-0.231298 -0.277572,-0.09927 -0.55754,-0.22044 -0.833183,-0.363047 -0.414284,-0.214092 -0.778267,-0.45554 -1.081047,-0.708 -0.300896,-0.250891 -0.540497,-0.511954 -0.709087,-0.767452 -0.167164,-0.253335 -0.264218,-0.500756 -0.282292,-0.727326 -0.0179,-0.224389 0.04168,-0.428169 0.187165,-0.597201 0.04862,-0.05629 0.105262,-0.106943 0.169097,-0.152045 0.06365,-0.04496 0.134469,-0.08442 0.211663,-0.118453 0.07699,-0.03393 0.160331,-0.06248 0.24926,-0.08571 0.08871,-0.02317 0.182991,-0.04107 0.282089,-0.05375 z"
       id="path1"
       style="fill:#fcfcfc;fill-opacity:1" />
    <path
       d="m 76.763428,22.512615 c 0.06988,-0.01772 0.144966,-0.03076 0.224937,-0.0389 0.07986,-0.0081 0.164604,-0.01135 0.253922,-0.0095 0.08922,0.0019 0.183021,0.0089 0.281112,0.02119 0.098,0.0123 0.20031,0.02994 0.306633,0.05313 0.313614,0.06826 0.633179,0.178522 0.943154,0.319667 0.310386,0.141335 0.612053,0.31404 0.889091,0.507124 0.278153,0.193854 0.532151,0.408724 0.74556,0.633503 0.214737,0.22618 0.388794,0.462847 0.505012,0.698595 0.07777,0.157069 0.125206,0.303999 0.144318,0.438773 0.01921,0.135479 0.0098,0.258642 -0.02621,0.367401 -0.03617,0.109295 -0.09916,0.203996 -0.186836,0.281963 -0.08806,0.07831 -0.200966,0.139683 -0.336472,0.181965 -0.06963,0.02172 -0.145187,0.0384 -0.226379,0.04974 -0.08131,0.01136 -0.168259,0.01736 -0.260491,0.01772 -0.09236,3.57e-4 -0.190002,-0.0049 -0.292594,-0.01619 -0.1027,-0.01126 -0.21032,-0.02846 -0.322518,-0.0519 -0.331611,-0.06925 -0.670936,-0.186205 -0.99987,-0.338134 C 78.077321,25.477045 77.760213,25.290915 77.47215,25.083243 77.1853,24.87644 76.927975,24.648798 76.717221,24.413035 76.507809,24.178784 76.344792,23.936976 76.244435,23.699961 76.178755,23.544537 76.144246,23.4009 76.13812,23.27079 c -0.0061,-0.129432 0.01591,-0.245512 0.06327,-0.34655 0.04713,-0.100553 0.119415,-0.186258 0.214211,-0.255468 0.09439,-0.06892 0.211174,-0.121527 0.347824,-0.156189 z"
       id="path2"
       style="fill:#fcfcfc;fill-opacity:1" />
    <path
       d="m 85.099533,33.091797 c 0.09242,-0.03999 0.192749,-0.07259 0.300659,-0.09741 0.107666,-0.02476 0.222924,-0.04178 0.345467,-0.05065 0.122322,-0.0089 0.251945,-0.0096 0.388595,-0.0019 0.136452,0.0077 0.279969,0.02397 0.430283,0.0491 0.472031,0.07887 0.968002,0.238323 1.462318,0.459594 0.495164,0.221646 0.990914,0.506329 1.461022,0.835824 0.472893,0.331451 0.921692,0.709545 1.318909,1.115943 0.401031,0.410294 0.750808,0.850796 1.020164,1.302514 0.18573,0.311477 0.321396,0.608379 0.408905,0.885711 0.08827,0.279721 0.127533,0.539459 0.119736,0.773926 -0.0079,0.236389 -0.06355,0.446934 -0.164955,0.626129 -0.102158,0.180508 -0.250603,0.329006 -0.442971,0.43985 -0.09,0.05185 -0.189559,0.09544 -0.298423,0.130181 -0.109131,0.03483 -0.22757,0.06076 -0.355034,0.07723 -0.127724,0.0165 -0.264443,0.0235 -0.409867,0.02042 -0.145652,-0.0031 -0.299964,-0.01625 -0.4626,-0.04007 -0.513047,-0.07516 -1.05835,-0.248699 -1.603234,-0.497646 -0.543876,-0.248486 -1.084617,-0.570858 -1.590377,-0.943455 -0.502518,-0.370205 -0.968422,-0.788459 -1.367485,-1.231365 -0.39505,-0.43845 -0.723305,-0.89962 -0.956559,-1.361103 -0.157402,-0.311436 -0.261268,-0.602718 -0.315628,-0.869564 -0.05389,-0.264572 -0.05914,-0.50523 -0.01965,-0.717926 0.03918,-0.211014 0.122414,-0.394672 0.246025,-0.547081 0.122749,-0.151356 0.285454,-0.27206 0.484703,-0.358284 z"
       id="path3"
       style="fill:#fcfcfc;fill-opacity:1" />
    <path
       d="m 52.365959,9.6736546 c 0.0834,-0.00584 0.170254,-0.0081 0.260113,-0.00666 0.08974,0.00144 0.182495,0.00657 0.277832,0.01552 0.09523,0.00894 0.193054,0.021685 0.293045,0.038367 0.09991,0.016667 0.202,0.03727 0.305859,0.061935 0.305755,0.07272 0.598468,0.1740456 0.866531,0.2951944 0.268383,0.121297 0.51276,0.262784 0.721111,0.415727 0.209111,0.153501 0.382393,0.318882 0.507332,0.4873 0.125652,0.169374 0.202633,0.342125 0.217876,0.509171 0.01,0.11095 -0.0079,0.2125 -0.05062,0.303489 -0.0429,0.09142 -0.11079,0.172162 -0.200458,0.241023 -0.09007,0.06917 -0.202088,0.126322 -0.332718,0.170236 -0.131153,0.04409 -0.280998,0.0748 -0.446102,0.09092 -0.08485,0.0083 -0.17371,0.01271 -0.266091,0.01311 -0.09251,4.03e-4 -0.188541,-0.0032 -0.287597,-0.01105 -0.09918,-0.0078 -0.201367,-0.01987 -0.30608,-0.03627 -0.104805,-0.01641 -0.212109,-0.03719 -0.321411,-0.06248 C 53.281308,12.124467 52.971753,12.01756 52.68942,11.888423 52.407448,11.759442 52.1534,11.608656 51.940304,11.446079 51.72802,11.28412 51.556866,11.11083 51.439293,10.936088 c -0.116886,-0.173724 -0.180599,-0.348571 -0.179268,-0.514942 0.0013,-0.109173 0.03046,-0.207847 0.08387,-0.295097 0.05315,-0.08684 0.13028,-0.1623791 0.227734,-0.2257307 0.09702,-0.063074 0.214233,-0.1140919 0.348072,-0.1521749 0.13332,-0.037935 0.283226,-0.063059 0.446262,-0.074489 z"
       id="path4"
       style="fill:#fcfcfc;fill-opacity:1" />
    <path
       d="m 38.294128,8.5381756 c 0.442803,-0.023027 0.89848,0.00587 1.344399,0.077555 0.444305,0.071423 0.880638,0.1855927 1.286461,0.3339567 0.405906,0.1483946 0.782844,0.331563 1.107902,0.5413342 0.326367,0.2106152 0.601685,0.4488525 0.80217,0.7067485 0.201893,0.260285 0.309063,0.516715 0.329067,0.758071 0.0202,0.243716 -0.04845,0.472363 -0.198524,0.673897 -0.15165,0.203643 -0.386448,0.379609 -0.696465,0.515096 -0.313095,0.136831 -0.702518,0.232207 -1.159221,0.272844 -0.461472,0.04017 -0.945359,0.02087 -1.424511,-0.04886 -0.48103,-0.07 -0.9553,-0.190547 -1.39542,-0.351856 -0.440022,-0.161273 -0.84409,-0.362628 -1.185296,-0.593808 -0.339729,-0.230182 -0.615757,-0.488999 -0.802299,-0.765993 -0.184914,-0.275299 -0.2635,-0.541673 -0.248398,-0.7871931 0.01495,-0.2430725 0.121723,-0.4654474 0.307785,-0.6560659 0.184136,-0.1886473 0.445961,-0.3462276 0.773709,-0.4623413 0.32463,-0.1150094 0.714378,-0.1894952 1.158641,-0.2133828 z"
       id="path5"
       style="fill:#fcfcfc;fill-opacity:1" />
    <path
       d="m 59.61795,17.83415 c 0.350174,-0.05604 0.728783,-0.07565 1.125805,-0.0596 0.39502,0.01597 0.809193,0.06727 1.232929,0.153398 0.422635,0.08591 0.855866,0.206682 1.290417,0.362122 0.43459,0.15545 0.871723,0.34601 1.302311,0.57183 0.650459,0.34136 1.227554,0.732708 1.716065,1.150364 0.493415,0.421852 0.89878,0.872526 1.197998,1.327036 0.303436,0.460917 0.49868,0.927256 0.565109,1.371906 0.06753,0.452065 0.002,0.882458 -0.219017,1.261458 -0.07507,0.128565 -0.16568,0.247074 -0.270561,0.3554 -0.105454,0.108919 -0.225296,0.207496 -0.358178,0.295605 -0.13356,0.08855 -0.280235,0.166492 -0.438659,0.233697 -0.159149,0.06751 -0.330071,0.124159 -0.511345,0.169833 -0.360886,0.09093 -0.762177,0.138229 -1.192337,0.141248 -0.432594,0.003 -0.893288,-0.03872 -1.3699,-0.125595 -0.478027,-0.08713 -0.970688,-0.219389 -1.465355,-0.396669 -0.494625,-0.177265 -0.989673,-0.398977 -1.472286,-0.664517 -0.723488,-0.397579 -1.346626,-0.853717 -1.851936,-1.335224 -0.499756,-0.476213 -0.881798,-0.974909 -1.132305,-1.464926 -0.246796,-0.482763 -0.365193,-0.955682 -0.343743,-1.390317 0.02109,-0.427392 0.177376,-0.817297 0.479351,-1.143879 0.100201,-0.108559 0.213314,-0.20673 0.337868,-0.294678 0.123909,-0.08749 0.259193,-0.164898 0.40443,-0.232378 0.144555,-0.06716 0.299031,-0.124519 0.462048,-0.172209 0.162331,-0.04749 0.33321,-0.08542 0.511291,-0.113905 z"
       id="path6"
       style="fill:#fcfcfc;fill-opacity:1" />
    <path
       d="m 42.589363,14.583106 c 0.702599,-0.07539 1.430809,-0.05529 2.148537,0.04458 0.713466,0.09928 1.421104,0.278008 2.087177,0.522253 0.66631,0.244328 1.295197,0.555744 1.850113,0.921521 0.55859,0.3682 1.045742,0.793806 1.422787,1.264912 0.382152,0.478096 0.616615,0.959993 0.711326,1.423843 0.09626,0.471434 0.04837,0.925247 -0.136566,1.336985 -0.188202,0.419021 -0.518375,0.794534 -0.982498,1.099441 -0.471977,0.310068 -1.081524,0.546495 -1.81781,0.680233 -0.749256,0.134859 -1.552082,0.150902 -2.360287,0.06278 -0.813686,-0.08872 -1.62701,-0.282387 -2.390717,-0.563801 -0.763401,-0.281302 -1.471771,-0.64827 -2.077091,-1.081892 -0.600807,-0.43039 -1.095909,-0.923443 -1.440635,-1.459318 -0.339848,-0.529179 -0.499451,-1.047671 -0.500004,-1.530421 -5.42e-4,-0.474596 0.152645,-0.91385 0.43861,-1.295622 0.28101,-0.375152 0.690361,-0.694964 1.209175,-0.939477 0.510628,-0.240656 1.12851,-0.408947 1.837883,-0.486011 z"
       id="path7"
       style="fill:#fcfcfc;fill-opacity:1" />
    <path
       d="m 25.10182,12.236561 c 0.426317,-0.032 0.852657,-0.01587 1.259561,0.04045 0.405629,0.05613 0.793299,0.152386 1.143515,0.281276 0.350281,0.128913 0.664255,0.290903 0.922033,0.478809 0.258679,0.188563 0.461626,0.403845 0.588185,0.638872 0.127458,0.236684 0.165348,0.471695 0.123949,0.694409 -0.04175,0.224591 -0.164173,0.436914 -0.35693,0.625684 -0.194494,0.190473 -0.460594,0.356968 -0.787367,0.487593 -0.329555,0.131737 -0.720461,0.226848 -1.160763,0.27304 -0.44487,0.04594 -0.896207,0.03802 -1.330721,-0.01605 -0.435974,-0.05425 -0.853464,-0.15476 -1.229133,-0.293232 -0.375597,-0.138443 -0.708059,-0.314345 -0.974526,-0.519014 -0.265476,-0.203909 -0.464519,-0.435661 -0.575222,-0.68638 -0.110467,-0.248734 -0.123226,-0.492071 -0.05264,-0.718697 0.06998,-0.224685 0.221815,-0.432736 0.441385,-0.613532 0.217613,-0.179184 0.501793,-0.331622 0.839153,-0.447243 0.334587,-0.114669 0.721882,-0.193258 1.149523,-0.225982 z"
       id="path8"
       style="fill:#fcfcfc;fill-opacity:1" />
    <path
       d="m 70.239494,29.84001 c 0.174515,-0.05581 0.35923,-0.100436 0.553421,-0.133334 0.193505,-0.03278 0.396531,-0.05394 0.608414,-0.06294 0.211258,-0.009 0.431442,-0.0059 0.659927,0.0099 0.227967,0.01572 0.464341,0.04404 0.708535,0.08554 0.766052,0.130216 1.541046,0.378871 2.290489,0.718099 0.751419,0.34012 1.482468,0.773701 2.156692,1.274088 0.680466,0.505018 1.307228,1.08119 1.840752,1.701632 0.541557,0.629791 0.989906,1.308521 1.301384,2.007873 0.216095,0.485199 0.352646,0.949589 0.413925,1.385208 0.06213,0.441616 0.04687,0.853523 -0.0413,1.227032 -0.08933,0.378429 -0.253411,0.71706 -0.487282,1.006599 -0.236649,0.29298 -0.544342,0.535191 -0.917321,0.716965 -0.174957,0.08527 -0.364158,0.15715 -0.566932,0.214676 -0.203583,0.05775 -0.420723,0.10099 -0.650704,0.128746 -0.230751,0.02785 -0.474266,0.04009 -0.729759,0.03576 -0.256164,-0.0043 -0.524177,-0.02532 -0.8032,-0.06387 -0.881492,-0.121846 -1.784141,-0.406578 -2.656364,-0.81569 -0.86956,-0.407863 -1.701782,-0.936023 -2.448036,-1.544113 -0.738442,-0.601726 -1.387749,-1.277691 -1.903954,-1.988415 -0.507797,-0.699157 -0.884163,-1.428329 -1.090248,-2.150802 -0.138168,-0.484379 -0.190636,-0.934101 -0.167053,-1.343041 0.02326,-0.403408 0.120537,-0.767414 0.282738,-1.086425 0.160171,-0.315035 0.383865,-0.586594 0.662689,-0.809399 0.27581,-0.220388 0.606064,-0.393478 0.983192,-0.514089 z"
       id="path9"
       style="fill:#fcfcfc;fill-opacity:1" />
    <path
       d="m 50.464912,24.520388 c 0.661313,-0.138545 1.360176,-0.207661 2.07914,-0.20858 0.712742,-9.12e-4 1.448097,0.06519 2.189743,0.197919 0.738342,0.132138 1.486149,0.330883 2.227886,0.59681 0.741833,0.265961 1.48116,0.600399 2.20287,1.005043 1.093586,0.613159 2.052521,1.334963 2.855446,2.122617 0.816875,0.801341 1.479,1.67746 1.956714,2.581904 0.489544,0.926832 0.788304,1.888885 0.858975,2.832939 0.07278,0.972225 -0.09611,1.928612 -0.550118,2.806587 -0.155685,0.301064 -0.339901,0.583207 -0.550392,0.84573 -0.212612,0.265175 -0.451874,0.510143 -0.71537,0.7342 -0.265961,0.22615 -0.556393,0.430812 -0.868714,0.613292 -0.314983,0.184033 -0.651943,0.34533 -1.008132,0.483216 -0.712651,0.275879 -1.500092,0.45734 -2.33923,0.539737 -0.848118,0.08328 -1.745014,0.06496 -2.665322,-0.05839 -0.92546,-0.124039 -1.869552,-0.353611 -2.805301,-0.690377 -0.935589,-0.336704 -1.857174,-0.778526 -2.737206,-1.324917 -1.313564,-0.816124 -2.39645,-1.77901 -3.224441,-2.809703 -0.811066,-1.009621 -1.370316,-2.075337 -1.665856,-3.126519 -0.287559,-1.022785 -0.323997,-2.026664 -0.103595,-2.951841 0.213833,-0.897596 0.669101,-1.719709 1.370865,-2.416159 0.230949,-0.229204 0.481445,-0.437687 0.748718,-0.62582 0.264839,-0.18642 0.546375,-0.353014 0.841965,-0.500109 0.293163,-0.145883 0.60041,-0.272714 0.919227,-0.380769 0.316487,-0.107266 0.644665,-0.196127 0.982128,-0.266813 z"
       id="path10"
       style="fill:#fcfcfc;fill-opacity:1" />
    <path
       d="m 30.290163,22.905561 c 0.287523,-0.04687 0.580458,-0.08216 0.877413,-0.105402 0.295778,-0.02315 0.595731,-0.03435 0.898525,-0.03312 0.301796,0.0012 0.606621,0.01483 0.913189,0.0413 0.305782,0.02641 0.613525,0.06565 0.921989,0.118274 0.967201,0.164982 1.85582,0.447125 2.639721,0.817543 0.786213,0.371512 1.473324,0.834771 2.031136,1.362139 0.563614,0.532856 0.999115,1.134852 1.271702,1.777987 0.277214,0.654054 0.387588,1.354581 0.291042,2.071838 -0.06689,0.498278 -0.229385,0.972996 -0.475708,1.416246 -0.25016,0.450165 -0.586693,0.86771 -0.996899,1.243895 -0.416343,0.381815 -0.908115,0.720589 -1.461296,1.006889 -0.560669,0.290173 -1.183327,0.525872 -1.85236,0.697254 -0.314144,0.08047 -0.63824,0.146676 -0.970566,0.197606 -0.333843,0.05116 -0.675762,0.08688 -1.023952,0.106163 -0.349526,0.01935 -0.705097,0.02213 -1.064835,0.0074 -0.360822,-0.01481 -0.725519,-0.04724 -1.092142,-0.09822 -1.158817,-0.161122 -2.219379,-0.490921 -3.137632,-0.947419 -0.915043,-0.454906 -1.680235,-1.031389 -2.258013,-1.685428 -0.570881,-0.646233 -0.95443,-1.363253 -1.119923,-2.10837 -0.162427,-0.731316 -0.11384,-1.485415 0.170767,-2.223131 0.190851,-0.493517 0.474783,-0.947373 0.833096,-1.356018 0.352823,-0.402388 0.778057,-0.761271 1.258375,-1.071658 0.473566,-0.30602 1.001371,-0.565347 1.56752,-0.773292 0.559231,-0.205406 1.157034,-0.361103 1.778851,-0.462456 z"
       id="path11"
       style="fill:#fcfcfc;fill-opacity:1" />
    <path
       d="m 88.504631,48.816971 c 0.275147,-0.189194 0.617943,-0.278813 1.002701,-0.279846 0.383247,-0.001 0.809723,0.08583 1.254524,0.250835 0.444901,0.165043 0.909973,0.408939 1.370514,0.722904 0.462555,0.315335 0.922462,0.70266 1.354645,1.15395 0.436645,0.455952 0.804664,0.935219 1.096328,1.412941 0.294762,0.482792 0.511948,0.964657 0.642701,1.418983 0.132248,0.459496 0.176086,0.890843 0.122093,1.265591 -0.05458,0.378796 -0.209038,0.699261 -0.472588,0.931477 -0.267471,0.233196 -0.619095,0.353763 -1.025963,0.370842 -0.408607,0.01715 -0.871086,-0.07015 -1.357414,-0.25124 -0.486213,-0.181049 -0.994079,-0.455021 -1.493316,-0.810017 -0.496895,-0.353325 -0.98304,-0.78535 -1.428757,-1.283317 -0.442009,-0.494549 -0.800965,-1.005497 -1.071808,-1.504643 -0.267906,-0.493736 -0.449287,-0.975361 -0.5401,-1.418606 -0.08979,-0.438266 -0.09105,-0.839103 3e-5,-1.177944 0.09014,-0.335346 0.270852,-0.61047 0.54641,-0.80191 z"
       id="path12"
       style="fill:#fcfcfc;fill-opacity:1" />
    <path
       d="m 63.861984,43.490784 c 0.80201,-0.35767 1.686844,-0.512955 2.603264,-0.491539 0.908814,0.02124 1.856781,0.21643 2.794663,0.565204 0.938331,0.348942 1.874794,0.854672 2.759819,1.500843 0.893264,0.652191 1.742065,1.453263 2.494232,2.390381 0.767441,0.955307 1.366859,1.96772 1.792213,2.987293 0.435288,1.043385 0.689698,2.097676 0.753144,3.105034 0.06507,1.033112 -0.07069,2.017323 -0.418686,2.885529 -0.356614,0.889702 -0.93512,1.655144 -1.744164,2.220894 -0.830047,0.575737 -1.812866,0.884014 -2.877228,0.941524 -1.075096,0.05809 -2.222015,-0.140266 -3.364792,-0.569786 -1.142112,-0.429268 -2.267951,-1.084865 -3.302169,-1.934356 -1.022805,-0.840111 -1.945481,-1.861233 -2.698426,-3.026612 -0.739021,-1.142555 -1.239971,-2.30851 -1.517318,-3.43153 -0.270562,-1.095543 -0.327709,-2.147758 -0.187626,-3.100368 0.136608,-0.928948 0.46088,-1.763935 0.958835,-2.456494 0.486817,-0.677063 1.141342,-1.220405 1.954239,-1.586017 z"
       id="path13"
       style="fill:#fcfcfc;fill-opacity:1" />
    <path
       d="m 39.98225,39.701309 c 0.665787,-0.214062 1.357456,-0.351566 2.058087,-0.412361 0.695076,-0.06031 1.401531,-0.04535 2.103332,0.04583 0.698937,0.09081 1.396073,0.257583 2.075936,0.502224 0.679946,0.244671 1.345619,0.568302 1.981758,0.973995 0.963054,0.615227 1.774684,1.365669 2.421219,2.203346 0.656818,0.851002 1.148181,1.798447 1.453563,2.791062 0.312283,1.015041 0.43174,2.082733 0.332161,3.145229 -0.10228,1.09132 -0.435951,2.180401 -1.031002,3.20015 -0.203735,0.348716 -0.431538,0.678093 -0.681072,0.987213 -0.251808,0.311943 -0.525574,0.603058 -0.818821,0.872413 -0.295723,0.271633 -0.611031,0.520939 -0.94331,0.74699 -0.334831,0.227784 -0.686607,0.431763 -1.052574,0.611023 -0.731594,0.358349 -1.517914,0.617134 -2.336189,0.769783 -0.826146,0.154122 -1.681324,0.199398 -2.541008,0.130345 -0.864014,-0.0694 -1.728344,-0.253945 -2.567372,-0.557457 -0.838898,-0.303467 -1.647938,-0.724224 -2.401317,-1.263935 -1.127083,-0.807068 -2.012551,-1.795666 -2.645623,-2.880825 -0.621399,-1.065155 -0.994591,-2.21476 -1.118263,-3.371235 -0.120644,-1.128193 -0.0033,-2.257714 0.349522,-3.321484 0.343219,-1.034942 0.908741,-2.006107 1.694553,-2.856285 0.259033,-0.280235 0.533958,-0.538658 0.822147,-0.775421 0.285798,-0.234795 0.584855,-0.448463 0.894661,-0.641125 0.307484,-0.191211 0.625794,-0.361877 0.95253,-0.512073 0.324555,-0.149197 0.657689,-0.278317 0.997082,-0.387402 z"
       id="path14"
       style="fill:#fcfcfc;fill-opacity:1" />
    <path
       d="m 13.589614,21.225943 c 0.230228,-0.03041 0.462806,-0.05284 0.696546,-0.06696 0.233086,-0.01408 0.467433,-0.0199 0.701881,-0.01711 0.233903,0.0028 0.468021,0.01414 0.701223,0.03443 0.232778,0.02025 0.464766,0.0494 0.694851,0.08784 0.722229,0.120682 1.360377,0.32202 1.898621,0.583509 0.539375,0.26204 0.981462,0.585957 1.307983,0.95183 0.328924,0.368567 0.542174,0.7815 0.618954,1.218619 0.0777,0.442331 0.01597,0.91126 -0.208553,1.385654 -0.155209,0.327965 -0.378331,0.637671 -0.658196,0.924194 -0.282888,0.289618 -0.623665,0.555464 -1.010534,0.79226 -0.390848,0.239231 -0.828419,0.448614 -1.300123,0.622587 -0.476063,0.175579 -0.986239,0.314852 -1.517066,0.412111 -0.248604,0.04555 -0.50158,0.08185 -0.7575,0.108324 -0.256712,0.02656 -0.516265,0.04322 -0.777192,0.04941 -0.261604,0.0062 -0.52445,0.0019 -0.78704,-0.0135 -0.263122,-0.01542 -0.525828,-0.04196 -0.786591,-0.08015 C 11.58381,28.09841 10.861841,27.873907 10.264385,27.572071 9.6683408,27.270948 9.199977,26.894754 8.8792992,26.47089 8.5612193,26.050461 8.3901015,25.585321 8.3827134,25.102306 c -0.00729,-0.476894 0.1450491,-0.969268 0.4712133,-1.451807 0.2195101,-0.324762 0.5035505,-0.623893 0.8376131,-0.89361 0.3305032,-0.266843 0.7101412,-0.505035 1.1251742,-0.711061 0.410946,-0.203995 0.857,-0.376656 1.325213,-0.514616 0.464186,-0.136774 0.950815,-0.239639 1.447687,-0.305269 z"
       id="path15"
       style="fill:#fcfcfc;fill-opacity:1" />
    <path
       d="m 10.608052,39.625786 c 0.23594,-0.06039 0.473976,-0.110218 0.7127,-0.148907 0.23806,-0.03857 0.47692,-0.06609 0.715204,-0.08192 0.237741,-0.01581 0.475035,-0.02 0.710533,-0.01196 0.235093,0.008 0.468532,0.02823 0.69899,0.06127 0.678866,0.09797 1.270032,0.298283 1.760051,0.577461 0.491211,0.279854 0.88337,0.640431 1.160723,1.058983 0.279386,0.421623 0.443535,0.903977 0.474428,1.424114 0.03125,0.526142 -0.07373,1.092934 -0.335167,1.67643 -0.174438,0.389893 -0.407959,0.7631 -0.690395,1.113613 -0.285216,0.353966 -0.620217,0.68467 -0.994306,0.985718 -0.377579,0.303856 -0.794683,0.57727 -1.23997,0.813538 -0.449009,0.238246 -0.926117,0.438427 -1.419293,0.593662 -0.254166,0.08 -0.512414,0.148022 -0.773067,0.203121 -0.261449,0.05527 -0.525184,0.09751 -0.78948,0.125805 -0.264962,0.02836 -0.530337,0.04268 -0.794366,0.04205 -0.2645321,-6.4e-4 -0.5275431,-0.01629 -0.787241,-0.04785 C 8.249281,47.917595 7.5868516,47.694469 7.0494886,47.371883 6.5135832,47.050171 6.1052061,46.631424 5.840592,46.146996 5.5780984,45.666451 5.4583312,45.123569 5.4947148,44.549171 c 0.035941,-0.567409 0.2241259,-1.163486 0.5758767,-1.75904 0.2295589,-0.389321 0.5144324,-0.753979 0.8418722,-1.089005 0.3242602,-0.331779 0.6904345,-0.634674 1.086401,-0.904022 0.3924241,-0.266941 0.8144679,-0.501175 1.2546439,-0.698227 0.4367351,-0.195511 0.8918834,-0.354675 1.3545434,-0.473091 z"
       id="path16"
       style="fill:#fcfcfc;fill-opacity:1" />
    <circle
       cx="26.395386"
       cy="70.758362"
       r="7.0366049"
       id="circle16"
       style="fill:#fcfcfc;fill-opacity:1" />
    <ellipse
       transform="rotate(-121.19467,85.488899,73.51473)"
       cx="85.488892"
       cy="73.514725"
       rx="7.0366049"
       ry="5.2096682"
       id="ellipse16"
       style="fill:#fcfcfc;fill-opacity:1" />
    <ellipse
       transform="rotate(-2.1703158,59.011125,81.218182)"
       cx="59.011017"
       cy="81.21817"
       rx="5.990623"
       ry="7.1316938"
       id="ellipse17"
       style="fill:#fcfcfc;fill-opacity:1" />
  </g>
</svg>
