<?xml version="1.0" encoding="UTF-8" standalone="no"?>
<!-- Created with Inkscape (http://www.inkscape.org/) -->

<svg
   width="144.97749"
   height="144.97749"
   viewBox="0 0 116.66666 116.66667"
   class="looka-1j8o68f"
   version="1.1"
   id="svg15"
   sodipodi:docname="logo-sdl_vpn-onlyicon-white-nobackground.svg"
   inkscape:version="1.3.2 (091e20ef0f, 2023-11-25)"
   xmlns:inkscape="http://www.inkscape.org/namespaces/inkscape"
   xmlns:sodipodi="http://sodipodi.sourceforge.net/DTD/sodipodi-0.dtd"
   xmlns="http://www.w3.org/2000/svg"
   xmlns:svg="http://www.w3.org/2000/svg">
  <sodipodi:namedview
     id="namedview15"
     pagecolor="#000000"
     bordercolor="#eeeeee"
     borderopacity="1"
     inkscape:showpageshadow="0"
     inkscape:pageopacity="0"
     inkscape:pagecheckerboard="0"
     inkscape:deskcolor="#d1d1d1"
     inkscape:zoom="2.3441503"
     inkscape:cx="82.545902"
     inkscape:cy="68.468306"
     inkscape:window-width="1920"
     inkscape:window-height="1011"
     inkscape:window-x="0"
     inkscape:window-y="0"
     inkscape:window-maximized="1"
     inkscape:current-layer="svg15" />
  <defs
     id="SvgjsDefs8034" />
  <g
     id="SvgjsG8035"
     featurekey="JiLV9t-0"
     transform="matrix(1.2736535,0,0,1.2736535,-5.3493446,-5.3493446)"
     fill="#2a438f"
     style="fill:#f3f3f3;fill-opacity:1">
    <path
       d="m 64.9,17.8 c 0.3,-1.5 0.5,-3 0.7,-4.6 -3.2,-1.4 -6.6,-2.3 -10.1,-2.8 2.6,2.6 5,5.2 7.1,7.9 0.7,-0.3 1.5,-0.5 2.3,-0.5 z"
       id="path1"
       style="fill:#f3f3f3;fill-opacity:1" />
    <path
       d="m 17.8,39 c 0.8,0 1.6,0.2 2.3,0.5 6.4,-6.7 13.8,-11.5 22.1,-14.4 5.8,-2 11.6,-2.9 17.1,-3 0.2,-0.8 0.7,-1.6 1.2,-2.2 -2.7,-3.4 -5.8,-6.7 -9.2,-9.8 -0.4,0 -0.9,0 -1.3,0 -16.9,0 -31.3,10.5 -37.1,25.3 0.7,1.3 1.5,2.8 2.4,4.3 C 16,39.3 16.9,39 17.8,39 Z"
       id="path2"
       style="fill:#f3f3f3;fill-opacity:1" />
    <path
       d="m 70.9,68.1 c 0.3,-2.4 2.1,-4.3 4.5,-4.9 0,-0.9 0,-1.8 0,-2.8 -0.3,-11.3 -3.2,-21.7 -8.5,-31.2 -0.6,0.2 -1.2,0.3 -1.9,0.3 0,0 0,0 0,0 -3.9,13.6 -9.9,24.7 -16,33.3 0.9,0.9 1.5,2.2 1.6,3.5 6.2,1.6 13,2.2 20.3,1.8 z"
       id="path3"
       style="fill:#f3f3f3;fill-opacity:1" />
    <circle
       cx="17.799999"
       cy="44.900002"
       r="2.9000001"
       id="circle3"
       style="fill:#f3f3f3;fill-opacity:1" />
    <path
       d="m 70.7,22.8 c 3.7,0.5 7.2,1.3 10.3,2.2 -3.5,-4.4 -7.9,-8 -13,-10.5 -0.2,1.3 -0.4,2.7 -0.6,4 1.8,0.7 3,2.3 3.3,4.3 z"
       id="path4"
       style="fill:#f3f3f3;fill-opacity:1" />
    <path
       d="m 44.7,63.9 c -1.6,0 -2.9,1.3 -2.9,2.9 0,1.6 1.3,2.9 2.9,2.9 1.6,0 2.9,-1.3 2.9,-2.9 0,-1.6 -1.3,-2.9 -2.9,-2.9 z"
       id="path5"
       style="fill:#f3f3f3;fill-opacity:1" />
    <path
       d="m 59.2,24.8 c -5.2,0.1 -10.7,1 -16.1,2.8 -7.7,2.7 -14.7,7.2 -20.8,13.4 0.9,1 1.4,2.4 1.4,3.8 0,1.6 -0.6,3 -1.6,4 4.3,4.8 9.7,9.5 16.7,13 0.5,0.3 1.1,0.5 1.6,0.8 1.1,-1.1 2.6,-1.9 4.3,-1.9 0.8,0 1.5,0.1 2.1,0.4 6,-8.4 11.8,-19.1 15.5,-32.3 -1.6,-0.6 -2.8,-2.2 -3.1,-4 z"
       id="path6"
       style="fill:#f3f3f3;fill-opacity:1" />
    <circle
       cx="64.900002"
       cy="23.700001"
       r="2.9000001"
       id="circle6"
       style="fill:#f3f3f3;fill-opacity:1" />
    <path
       d="m 70.6,25.5 c -0.3,1 -0.9,1.8 -1.6,2.5 6.6,11.8 8.7,23.3 9,32.5 0,0.9 0,1.9 0,2.8 1.9,0.4 3.5,1.8 4.2,3.6 1.5,-0.3 3,-0.6 4.5,-0.9 C 88.8,61.1 90,55.7 90,50.1 90,42.2 87.7,34.9 83.7,28.7 79.9,27.4 75.5,26.2 70.6,25.5 Z"
       id="path7"
       style="fill:#f3f3f3;fill-opacity:1" />
    <path
       d="m 12,44.9 c 0,-1.3 0.4,-2.5 1.2,-3.5 -0.5,-0.9 -1,-1.7 -1.5,-2.5 -1,3.5 -1.6,7.3 -1.6,11.2 0,0.9 0,1.7 0.1,2.6 0.9,-1.5 1.9,-3 2.8,-4.4 -0.7,-1 -1,-2.2 -1,-3.4 z"
       id="path8"
       style="fill:#f3f3f3;fill-opacity:1" />
    <path
       d="m 77,74.8 c -0.3,2 -0.7,3.8 -1,5.4 3.7,-3.2 6.8,-7 9.2,-11.4 -0.9,0.2 -1.8,0.4 -2.6,0.5 -0.3,3 -2.6,5.3 -5.6,5.5 z"
       id="path9"
       style="fill:#f3f3f3;fill-opacity:1" />
    <path
       d="M 50,4.2 C 24.7,4.2 4.2,24.7 4.2,50 4.2,75.3 24.7,95.8 50,95.8 75.3,95.8 95.8,75.3 95.8,50 95.8,24.7 75.3,4.2 50,4.2 Z m 40.6,62.2 c -3.3,8.1 -9,15.1 -16.2,19.9 v 0 c 0,0 0,0 0,0 -0.6,0.4 -1.1,0.7 -1.7,1.1 0,0 0,0 -0.1,0 -0.6,0.3 -1.1,0.7 -1.7,1 v 0 c -6.2,3.4 -13.3,5.3 -20.8,5.3 -20.7,0 -38,-14.3 -42.6,-33.6 0,0 0,0 0,0 C 6.7,56.9 6.2,53.5 6.2,50 c 0,-5.6 1.1,-11 3,-15.9 0.2,-0.6 0.4,-1.1 0.7,-1.6 0,-0.1 0,-0.1 0.1,-0.1 0.2,-0.5 0.5,-1 0.7,-1.5 0,0 0,0 0,0 C 17.4,17.1 31,7.5 47,6.4 c 0,0 0,0 0,0 0.4,0 0.9,-0.1 1.3,-0.1 0.6,0 1.1,0 1.7,0 0.3,0 0.6,0 1,0 5.3,0.1 10.4,1.2 15.1,3 0,0 0,0 0,0 8.8,3.5 16.2,9.7 21.1,17.6 0,0 0,0 0,0 0.4,0.6 0.7,1.2 1.1,1.8 0,0 0,0 0,0 0.3,0.6 0.7,1.2 1,1.9 0,0 0,0 0,0 2.9,5.8 4.5,12.4 4.5,19.4 0,5.7 -1.1,11.1 -3,16 -0.1,0.2 -0.2,0.3 -0.2,0.4 z"
       id="path10"
       style="fill:#f3f3f3;fill-opacity:1" />
    <path
       d="m 39.8,70.1 c -0.6,-0.9 -1,-2.1 -1,-3.3 0,-0.6 0.1,-1.2 0.3,-1.7 -0.5,-0.2 -1,-0.5 -1.5,-0.7 -7.5,-3.8 -13.3,-8.8 -17.7,-13.9 -0.6,0.2 -1.3,0.3 -2,0.3 -1.1,0 -2,-0.3 -2.9,-0.8 -1.5,2.2 -2.9,4.5 -4.3,6.9 1.8,10.5 7.8,19.6 16.1,25.5 2.6,-2 7.5,-6.1 13,-12.3 z"
       id="path11"
       style="fill:#f3f3f3;fill-opacity:1" />
    <path
       d="m 71.1,70.7 c -1.5,0.1 -3,0.2 -4.4,0.2 -5.8,0 -11.3,-0.7 -16.5,-2 -0.9,2.2 -3,3.7 -5.5,3.7 -1.1,0 -2.1,-0.3 -2.9,-0.8 -5.2,5.8 -9.8,9.9 -12.7,12.1 6.1,3.8 13.3,5.9 20.9,5.9 8.4,0 16.2,-2.6 22.6,-7.1 0.6,-2.4 1.3,-5.2 1.8,-8.5 -1.6,-0.5 -2.8,-1.8 -3.3,-3.5 z"
       id="path12"
       style="fill:#f3f3f3;fill-opacity:1" />
    <circle
       cx="76.699997"
       cy="69"
       r="2.9000001"
       id="circle12"
       style="fill:#f3f3f3;fill-opacity:1" />
  </g>
</svg>
